# File created by Blade
# Date/Time:  Thu Jan 22 16:36:34 2015
#---------------------------------------------------------
:version 1.10
:name HOM
:units
  mass 1.0
  length 1.000000
  angle deg
:documentation
     Acclaim Skeleton File
:root
   axis xyz
   order TX TY TZ RX RY RZ
   position 0.000000 0.000000 0.000000
   orientation 0 0 0
:bonedata
   begin
      id 1
      name RightUpLeg_dum
      direction -1.000000 0.000000 0.000000
      length 3.766986
      axis 0.0 0.0 0.0 xyz
   end
   begin
      id 2
      name LeftUpLeg_dum
      direction 1.000000 0.000000 0.000000
      length 3.766986
      axis 0.0 0.0 0.0 xyz
   end
   begin
      id 3
      name Spine_dum
      direction 0.000000 1.000000 0.000000
      length 7.779697
      axis 0.0 0.0 0.0 xyz
   end
   begin
      id 4
      name RightUpLeg
      direction 0.000000 -1.000000 0.000000
      length 18.017682
      axis 0.0 0.0 0.0 xyz
      dof rx ry rz
   end
   begin
      id 5
      name RightLeg
      direction 0.000000 -1.000000 0.000000
      length 16.881075
      axis 0.0 0.0 0.0 xyz
      dof rx ry rz
   end
   begin
      id 6
      name RightFoot
      direction 0.000000 -0.258819 0.965926
      length 5.770812
      axis 15.0 0.0 0.0 xyz
      dof rx ry rz
   end
   begin
      id 7
      name RightToeBase
      direction 0.000000 0.000000 1.000000
      length 2.952750
      axis 0.0 0.0 0.0 xyz
      dof rx ry rz
   end
   begin
      id 8
      name LeftUpLeg
      direction 0.000000 -1.000000 0.000000
      length 18.017682
      axis 0.0 0.0 0.0 xyz
      dof rx ry rz
   end
   begin
      id 9
      name LeftLeg
      direction 0.000000 -1.000000 0.000000
      length 16.881075
      axis 0.0 0.0 0.0 xyz
      dof rx ry rz
   end
   begin
      id 10
      name LeftFoot
      direction 0.000000 -0.258819 0.965926
      length 5.770812
      axis 15.0 0.0 0.0 xyz
      dof rx ry rz
   end
   begin
      id 11
      name LeftToeBase
      direction 0.000000 0.000000 1.000000
      length 2.952750
      axis 0.0 0.0 0.0 xyz
      dof rx ry rz
   end
   begin
      id 12
      name Spine
      direction 0.000000 1.000000 0.000000
      length 0.000000
      axis 0.0 0.0 0.0 xyz
      dof rx ry rz
   end
   begin
      id 13
      name Spine_dum1
      direction 0.000000 1.000000 0.000000
      length 10.941760
      axis 0.0 0.0 0.0 xyz
   end
   begin
      id 14
      name Spine_dum2
      direction 0.000000 1.000000 0.000000
      length 10.941760
      axis 0.0 0.0 0.0 xyz
   end
   begin
      id 15
      name Spine_dum3
      direction 0.000000 1.000000 0.000000
      length 16.646042
      axis 0.0 0.0 0.0 xyz
   end
   begin
      id 16
      name RightShoulder
      direction -1.000000 0.000000 0.000000
      length 7.708937
      axis 0.0 0.0 90.0 xyz
      dof rx ry rz
   end
   begin
      id 17
      name RightArm
      direction -1.000000 0.000000 0.000000
      length 11.521345
      axis 0.0 0.0 90.0 xyz
      dof rx ry rz
   end
   begin
      id 18
      name RightForeArm
      direction -1.000000 0.000000 0.000000
      length 10.175898
      axis 0.0 0.0 90.0 xyz
      dof ry rz rx
   end
   begin
      id 19
      name RightHand
      direction -1.000000 0.000000 0.000000
      length 0.000000
      axis 0.0 0.0 90.0 xyz
      dof rx ry rz
   end
   begin
      id 20
      name RightHand_dum1
      direction -1.000000 0.000000 0.000000
      length 3.937000
      axis 0.0 0.0 90.0 xyz
   end
   begin
      id 21
      name RightHand_dum2
      direction 0.000000 0.000000 0.000000
      length 0.000000
      axis 0.0 0.0 90.0 xyz
   end
   begin
      id 22
      name RightHandThumb1
      direction 0.000000 0.000000 1.000000
      length 3.937000
      axis 0.0 0.0 90.0 xyz
      dof rx rz ry
   end
   begin
      id 23
      name LeftShoulder
      direction 1.000000 0.000000 0.000000
      length 7.708937
      axis 0.0 0.0 -90.0 xyz
      dof rx ry rz
   end
   begin
      id 24
      name LeftArm
      direction 1.000000 0.000000 0.000000
      length 11.521345
      axis 0.0 0.0 -90.0 xyz
      dof rx ry rz
   end
   begin
      id 25
      name LeftForeArm
      direction 1.000000 0.000000 0.000000
      length 10.175898
      axis 0.0 0.0 -90.0 xyz
      dof ry rz rx
   end
   begin
      id 26
      name LeftHand
      direction 1.000000 0.000000 0.000000
      length 0.000000
      axis 0.0 0.0 -90.0 xyz
      dof rx ry rz
   end
   begin
      id 27
      name LeftHand_dum1
      direction 1.000000 0.000000 0.000000
      length 3.937000
      axis 0.0 0.0 -90.0 xyz
   end
   begin
      id 28
      name LeftHand_dum2
      direction 0.000000 0.000000 0.000000
      length 0.000000
      axis 0.0 0.0 -90.0 xyz
   end
   begin
      id 29
      name LeftHandThumb1
      direction 0.000000 0.000000 1.000000
      length 3.937000
      axis 0.0 0.0 -90.0 xyz
      dof rx rz ry
   end
   begin
      id 30
      name Head
      direction 0.000000 1.000000 0.000000
      length 4.527550
      axis 0.0 0.0 0.0 xyz
      dof rx ry rz
   end
:hierarchy
   begin
      root RightUpLeg_dum LeftUpLeg_dum Spine_dum
      RightUpLeg_dum RightUpLeg
      LeftUpLeg_dum LeftUpLeg
      Spine_dum Spine
      RightUpLeg RightLeg
      RightLeg RightFoot
      RightFoot RightToeBase
      LeftUpLeg LeftLeg
      LeftLeg LeftFoot
      LeftFoot LeftToeBase
      Spine Spine_dum1 Spine_dum2 Spine_dum3
      Spine_dum1 RightShoulder
      Spine_dum2 LeftShoulder
      Spine_dum3 Head
      RightShoulder RightArm
      RightArm RightForeArm
      RightForeArm RightHand
      RightHand RightHand_dum1 RightHand_dum2
      RightHand_dum2 RightHandThumb1
      LeftShoulder LeftArm
      LeftArm LeftForeArm
      LeftForeArm LeftHand
      LeftHand LeftHand_dum1 LeftHand_dum2
      LeftHand_dum2 LeftHandThumb1
   end

# File created by Blade
# Date/Time:  Thu Jan 22 16:36:26 2015
# Frame Rate: 120.000 fps
#------------------------------------------------------
:FULLY-SPECIFIED
:DEGREES
399
root -1.338064 8.024035 -3.479823 -56.472502 17.602901 4.067123
RightUpLeg -73.201270 -16.297603 0.592001
RightLeg 125.642013 -0.000000 -0.000000
RightFoot -12.397502 -14.538297 10.535511
RightToeBase -2.907755 -0.000000 0.000000
LeftUpLeg -67.055071 1.060101 15.334473
LeftLeg 137.108171 -0.000000 -0.000000
LeftFoot -12.328607 -17.165024 -25.237531
LeftToeBase -0.970993 -0.000000 0.000000
Spine 74.630916 3.459694 -8.599134
RightShoulder 11.957090 -22.721017 -27.582915
RightArm 26.676438 -32.846806 81.377819
RightForeArm 92.329485 0.000000 27.079867
RightHand 1.517834 -0.000000 -6.181896
RightHandThumb1 -24.326973 -0.000000 -32.862282
LeftShoulder -16.076348 38.640145 4.771337
LeftArm 44.392721 3.260702 -74.329193
LeftForeArm -7.189165 0.000000 2.688332
LeftHand -13.257719 -0.000000 -6.698889
LeftHandThumb1 -26.253704 0.000000 33.147579
Head 0.716644 -4.572544 -4.754257
400
root -1.277736 7.943959 -3.514801 -56.517413 17.586884 3.895502
RightUpLeg -73.386968 -16.342688 0.574662
RightLeg 125.575000 -0.000000 -0.000000
RightFoot -12.064956 -14.491563 10.463086
RightToeBase -2.776277 -0.000000 0.000000
LeftUpLeg -67.580079 1.216328 15.280838
LeftLeg 137.215446 -0.000000 -0.000000
LeftFoot -11.688183 -16.768018 -25.159257
LeftToeBase -1.457437 -0.000000 0.000000
Spine 74.300456 3.298199 -8.416284
RightShoulder 12.065828 -22.849906 -27.897902
RightArm 26.355945 -32.787738 81.474070
RightForeArm 92.388528 0.000000 27.533579
RightHand 1.585531 -0.000000 -6.314703
RightHandThumb1 -24.326973 -0.000000 -32.862282
LeftShoulder -15.976948 38.669070 5.527901
LeftArm 44.189042 4.819029 -73.614423
LeftForeArm -8.028612 -0.000000 2.996605
LeftHand -13.619395 -0.000000 -7.477562
LeftHandThumb1 -26.253704 0.000000 33.147579
Head 0.813440 -3.981590 -6.057684
401
root -1.211306 7.871169 -3.558497 -56.517273 17.545084 3.748197
RightUpLeg -73.573156 -16.383087 0.545375
RightLeg 125.479002 -0.000000 -0.000000
RightFoot -11.622186 -14.525433 10.245266
RightToeBase -2.906579 -0.000000 0.000000
LeftUpLeg -68.106297 1.362300 15.181035
LeftLeg 137.281915 -0.000000 -0.000000
LeftFoot -11.106366 -16.339515 -25.220437
LeftToeBase -0.790554 -0.000000 0.000000
Spine 73.975682 3.141490 -8.174454
RightShoulder 12.057426 -23.012846 -28.128396
RightArm 26.140039 -32.774717 81.400882
RightForeArm 92.407026 0.000000 27.982046
RightHand 1.588473 -0.000000 -6.575212
RightHandThumb1 -24.326973 -0.000000 -32.862282
LeftShoulder -15.650965 38.568532 6.229241
LeftArm 43.782760 6.119302 -72.996972
LeftForeArm -8.696869 -0.000000 3.371324
LeftHand -13.714676 -0.000000 -8.407114
LeftHandThumb1 -26.253704 0.000000 33.147579
Head 0.791842 -3.445734 -7.248781
402
root -1.169626 7.793046 -3.600927 -56.392870 17.390203 3.688088
RightUpLeg -73.863134 -16.193105 0.668290
RightLeg 125.375675 -0.000000 -0.000000
RightFoot -11.261736 -14.613521 10.121326
RightToeBase -2.019782 -0.000000 0.000000
LeftUpLeg -68.656413 1.696558 15.222812
LeftLeg 137.327049 -0.000000 -0.000000
LeftFoot -10.577911 -16.013256 -25.212488
LeftToeBase -0.667409 -0.000000 0.000000
Spine 73.538997 3.168088 -7.980665
RightShoulder 12.070693 -23.185470 -28.259987
RightArm 25.931926 -32.654849 81.392203
RightForeArm 92.348424 -0.000000 28.364134
RightHand 1.607546 -0.000000 -6.702695
RightHandThumb1 -24.326973 -0.000000 -32.862282
LeftShoulder -15.344409 38.539119 6.838840
LeftArm 43.334294 7.190899 -72.414231
LeftForeArm -9.305088 -0.000000 3.854898
LeftHand -13.630889 -0.000000 -9.203870
LeftHandThumb1 -26.253704 0.000000 33.147579
Head 0.708355 -2.730585 -8.095117
403
root -1.106201 7.726973 -3.650531 -56.275726 17.287107 3.668971
RightUpLeg -74.118593 -16.070940 0.647456
RightLeg 125.279265 -0.000000 -0.000000
RightFoot -10.859797 -14.686913 9.809740
RightToeBase -1.584677 -0.000000 0.000000
LeftUpLeg -69.149547 1.971178 15.065021
LeftLeg 137.390524 -0.000000 -0.000000
LeftFoot -10.282322 -15.650176 -25.233024
LeftToeBase -0.595877 -0.000000 0.000000
Spine 73.164173 3.131338 -7.923170
RightShoulder 12.087468 -23.277570 -28.387607
RightArm 25.770077 -32.593566 81.282502
RightForeArm 92.394666 -0.000000 28.660071
RightHand 1.668932 -0.000000 -6.748217
RightHandThumb1 -24.326973 -0.000000 -32.862282
LeftShoulder -15.168356 38.708532 7.166354
LeftArm 43.078144 8.056563 -71.856235
LeftForeArm -10.341987 -0.000000 4.265803
LeftHand -13.299881 0.000000 -9.634697
LeftHandThumb1 -26.253704 0.000000 33.147579
Head 0.510312 -2.048654 -8.792773
404
root -1.036052 7.669616 -3.707281 -56.158600 17.161924 3.680136
RightUpLeg -74.341358 -15.963164 0.593437
RightLeg 125.152885 -0.000000 -0.000000
RightFoot -10.517582 -14.728359 9.444263
RightToeBase -1.255181 -0.000000 0.000000
LeftUpLeg -69.593240 2.215748 14.902277
LeftLeg 137.459592 -0.000000 -0.000000
LeftFoot -10.004336 -15.429312 -25.339959
LeftToeBase -0.494000 -0.000000 0.000000
Spine 72.845656 3.068257 -7.919480
RightShoulder 12.106685 -23.214200 -28.546899
RightArm 25.551689 -32.480935 81.280458
RightForeArm 92.477399 -0.000000 28.767226
RightHand 1.639556 -0.000000 -6.510045
RightHandThumb1 -24.326973 -0.000000 -32.862282
LeftShoulder -15.079427 39.011330 7.269254
LeftArm 42.980804 8.662600 -71.409883
LeftForeArm -11.485086 -0.000000 4.518059
LeftHand -13.019873 -0.000000 -9.667600
LeftHandThumb1 -26.253704 0.000000 33.147579
Head 0.196874 -1.277812 -9.412262
